<mxfile host="app.diagrams.net" modified="2021-06-23T19:50:33.862Z" agent="5.0 (Windows NT 10.0; Win64; x64) AppleWebKit/537.36 (KHTML, like Gecko) Chrome/91.0.4472.114 Safari/537.36" etag="iRwt6r9hJ0s71qbzhZPV" version="14.8.0" type="github">
  <diagram id="kVIW5LwzDJvVMKqZbDJ1" name="Page-1">
    <mxGraphModel dx="868" dy="1619" grid="1" gridSize="5" guides="1" tooltips="1" connect="1" arrows="1" fold="1" page="1" pageScale="1" pageWidth="827" pageHeight="1169" math="0" shadow="0">
      <root>
        <mxCell id="0" />
        <mxCell id="1" parent="0" />
        <mxCell id="Gq3xom_HcEv2wPe3ekrj-24" style="edgeStyle=orthogonalEdgeStyle;rounded=0;orthogonalLoop=1;jettySize=auto;html=1;exitX=-0.002;exitY=0.113;exitDx=0;exitDy=0;entryX=1;entryY=0.5;entryDx=0;entryDy=0;exitPerimeter=0;" parent="1" source="SStCwTeKqwltEW7rpsz1-1" target="SStCwTeKqwltEW7rpsz1-49" edge="1">
          <mxGeometry relative="1" as="geometry" />
        </mxCell>
        <mxCell id="Gq3xom_HcEv2wPe3ekrj-25" style="edgeStyle=orthogonalEdgeStyle;rounded=0;orthogonalLoop=1;jettySize=auto;html=1;exitX=0;exitY=0.25;exitDx=0;exitDy=0;entryX=1;entryY=0.5;entryDx=0;entryDy=0;" parent="1" source="SStCwTeKqwltEW7rpsz1-1" target="SStCwTeKqwltEW7rpsz1-32" edge="1">
          <mxGeometry relative="1" as="geometry">
            <mxPoint x="260" y="105" as="targetPoint" />
            <Array as="points" />
          </mxGeometry>
        </mxCell>
        <mxCell id="Gq3xom_HcEv2wPe3ekrj-26" style="edgeStyle=orthogonalEdgeStyle;rounded=0;orthogonalLoop=1;jettySize=auto;html=1;exitX=0;exitY=0.75;exitDx=0;exitDy=0;entryX=1;entryY=0.5;entryDx=0;entryDy=0;" parent="1" source="SStCwTeKqwltEW7rpsz1-1" target="SStCwTeKqwltEW7rpsz1-39" edge="1">
          <mxGeometry relative="1" as="geometry">
            <Array as="points">
              <mxPoint x="340" y="145" />
            </Array>
          </mxGeometry>
        </mxCell>
        <mxCell id="Gq3xom_HcEv2wPe3ekrj-27" style="edgeStyle=orthogonalEdgeStyle;rounded=0;orthogonalLoop=1;jettySize=auto;html=1;entryX=1;entryY=0.5;entryDx=0;entryDy=0;exitX=0.008;exitY=0.787;exitDx=0;exitDy=0;exitPerimeter=0;" parent="1" source="SStCwTeKqwltEW7rpsz1-1" target="SStCwTeKqwltEW7rpsz1-25" edge="1">
          <mxGeometry relative="1" as="geometry">
            <mxPoint x="355" y="182" as="sourcePoint" />
            <Array as="points">
              <mxPoint x="320" y="159" />
              <mxPoint x="320" y="182" />
            </Array>
          </mxGeometry>
        </mxCell>
        <mxCell id="Gq3xom_HcEv2wPe3ekrj-28" style="edgeStyle=orthogonalEdgeStyle;rounded=0;orthogonalLoop=1;jettySize=auto;html=1;exitX=0.25;exitY=1;exitDx=0;exitDy=0;entryX=1;entryY=0.5;entryDx=0;entryDy=0;" parent="1" source="SStCwTeKqwltEW7rpsz1-1" target="SStCwTeKqwltEW7rpsz1-50" edge="1">
          <mxGeometry relative="1" as="geometry">
            <Array as="points">
              <mxPoint x="355" y="180" />
              <mxPoint x="355" y="225" />
            </Array>
          </mxGeometry>
        </mxCell>
        <mxCell id="SStCwTeKqwltEW7rpsz1-1" value="" style="rounded=1;whiteSpace=wrap;html=1;sketch=0;fontColor=#46495D;strokeColor=#788AA3;fillColor=#B2C9AB;" parent="1" vertex="1">
          <mxGeometry x="340" y="80" width="170" height="100" as="geometry" />
        </mxCell>
        <mxCell id="SStCwTeKqwltEW7rpsz1-2" value="&lt;font style=&quot;font-size: 24px&quot;&gt;STM32&lt;/font&gt;" style="text;html=1;strokeColor=none;fillColor=none;align=center;verticalAlign=middle;whiteSpace=wrap;rounded=0;sketch=0;fontColor=#46495D;" parent="1" vertex="1">
          <mxGeometry x="350" y="90" width="150" height="80" as="geometry" />
        </mxCell>
        <mxCell id="Gq3xom_HcEv2wPe3ekrj-13" style="edgeStyle=orthogonalEdgeStyle;rounded=0;orthogonalLoop=1;jettySize=auto;html=1;exitX=0;exitY=0.5;exitDx=0;exitDy=0;entryX=1.002;entryY=0.177;entryDx=0;entryDy=0;entryPerimeter=0;" parent="1" source="SStCwTeKqwltEW7rpsz1-10" target="SStCwTeKqwltEW7rpsz1-1" edge="1">
          <mxGeometry relative="1" as="geometry" />
        </mxCell>
        <mxCell id="SStCwTeKqwltEW7rpsz1-10" value="Throttle Input&amp;nbsp;" style="text;html=1;strokeColor=#6c8ebf;fillColor=#dae8fc;align=center;verticalAlign=middle;whiteSpace=wrap;rounded=0;sketch=0;" parent="1" vertex="1">
          <mxGeometry x="616.13" y="61" width="60" height="30" as="geometry" />
        </mxCell>
        <mxCell id="Gq3xom_HcEv2wPe3ekrj-14" style="edgeStyle=orthogonalEdgeStyle;rounded=0;orthogonalLoop=1;jettySize=auto;html=1;exitX=0;exitY=0.5;exitDx=0;exitDy=0;entryX=0.992;entryY=0.388;entryDx=0;entryDy=0;entryPerimeter=0;" parent="1" source="SStCwTeKqwltEW7rpsz1-13" target="SStCwTeKqwltEW7rpsz1-1" edge="1">
          <mxGeometry relative="1" as="geometry" />
        </mxCell>
        <mxCell id="SStCwTeKqwltEW7rpsz1-13" value="Mode" style="text;html=1;strokeColor=#6c8ebf;fillColor=#dae8fc;align=center;verticalAlign=middle;whiteSpace=wrap;rounded=0;sketch=0;" parent="1" vertex="1">
          <mxGeometry x="636.13" y="110.00000000000003" width="40" height="16.8" as="geometry" />
        </mxCell>
        <mxCell id="SStCwTeKqwltEW7rpsz1-14" value="" style="rounded=0;whiteSpace=wrap;html=1;sketch=0;strokeColor=#666666;fillColor=#f5f5f5;fontColor=#333333;" parent="1" vertex="1">
          <mxGeometry x="329" y="-60" width="192" height="121" as="geometry" />
        </mxCell>
        <mxCell id="SStCwTeKqwltEW7rpsz1-15" value="" style="endArrow=none;html=1;fontColor=#46495D;strokeColor=#788AA3;fillColor=#B2C9AB;entryX=1;entryY=1;entryDx=0;entryDy=0;exitX=1;exitY=0;exitDx=0;exitDy=0;" parent="1" source="SStCwTeKqwltEW7rpsz1-1" target="SStCwTeKqwltEW7rpsz1-14" edge="1">
          <mxGeometry width="50" height="50" relative="1" as="geometry">
            <mxPoint x="450" y="50" as="sourcePoint" />
            <mxPoint x="500" as="targetPoint" />
          </mxGeometry>
        </mxCell>
        <mxCell id="SStCwTeKqwltEW7rpsz1-16" value="" style="endArrow=none;html=1;fontColor=#46495D;strokeColor=#788AA3;fillColor=#B2C9AB;entryX=0;entryY=1;entryDx=0;entryDy=0;exitX=0;exitY=0;exitDx=0;exitDy=0;" parent="1" source="SStCwTeKqwltEW7rpsz1-1" target="SStCwTeKqwltEW7rpsz1-14" edge="1">
          <mxGeometry width="50" height="50" relative="1" as="geometry">
            <mxPoint x="220" y="110" as="sourcePoint" />
            <mxPoint x="300" y="40" as="targetPoint" />
          </mxGeometry>
        </mxCell>
        <mxCell id="Gq3xom_HcEv2wPe3ekrj-16" style="edgeStyle=orthogonalEdgeStyle;rounded=0;orthogonalLoop=1;jettySize=auto;html=1;exitX=0;exitY=0.5;exitDx=0;exitDy=0;entryX=0.994;entryY=0.932;entryDx=0;entryDy=0;entryPerimeter=0;" parent="1" source="SStCwTeKqwltEW7rpsz1-20" target="SStCwTeKqwltEW7rpsz1-1" edge="1">
          <mxGeometry relative="1" as="geometry" />
        </mxCell>
        <mxCell id="SStCwTeKqwltEW7rpsz1-20" value="Steering Angel" style="text;html=1;strokeColor=#6c8ebf;fillColor=#dae8fc;align=center;verticalAlign=middle;whiteSpace=wrap;rounded=0;sketch=0;" parent="1" vertex="1">
          <mxGeometry x="622.38" y="188" width="53.75" height="30" as="geometry" />
        </mxCell>
        <mxCell id="Gq3xom_HcEv2wPe3ekrj-15" style="edgeStyle=orthogonalEdgeStyle;rounded=0;orthogonalLoop=1;jettySize=auto;html=1;exitX=0;exitY=0.5;exitDx=0;exitDy=0;entryX=1.006;entryY=0.782;entryDx=0;entryDy=0;entryPerimeter=0;" parent="1" source="SStCwTeKqwltEW7rpsz1-22" target="SStCwTeKqwltEW7rpsz1-1" edge="1">
          <mxGeometry relative="1" as="geometry" />
        </mxCell>
        <mxCell id="SStCwTeKqwltEW7rpsz1-22" value="Direction" style="text;html=1;strokeColor=#6c8ebf;fillColor=#dae8fc;align=center;verticalAlign=middle;whiteSpace=wrap;rounded=0;sketch=0;" parent="1" vertex="1">
          <mxGeometry x="626.13" y="150.00000000000003" width="50" height="16.8" as="geometry" />
        </mxCell>
        <mxCell id="Gq3xom_HcEv2wPe3ekrj-30" style="edgeStyle=orthogonalEdgeStyle;rounded=0;orthogonalLoop=1;jettySize=auto;html=1;exitX=0;exitY=0.5;exitDx=0;exitDy=0;" parent="1" source="SStCwTeKqwltEW7rpsz1-25" edge="1">
          <mxGeometry relative="1" as="geometry">
            <mxPoint x="100" y="181.68965517241395" as="targetPoint" />
          </mxGeometry>
        </mxCell>
        <mxCell id="SStCwTeKqwltEW7rpsz1-25" value="Torque Request" style="text;html=1;strokeColor=#b85450;fillColor=#f8cecc;align=center;verticalAlign=middle;whiteSpace=wrap;rounded=0;sketch=0;" parent="1" vertex="1">
          <mxGeometry x="215" y="166.8" width="50" height="30" as="geometry" />
        </mxCell>
        <mxCell id="Gq3xom_HcEv2wPe3ekrj-32" style="edgeStyle=orthogonalEdgeStyle;rounded=0;orthogonalLoop=1;jettySize=auto;html=1;exitX=0;exitY=0.5;exitDx=0;exitDy=0;" parent="1" source="SStCwTeKqwltEW7rpsz1-32" edge="1">
          <mxGeometry relative="1" as="geometry">
            <mxPoint x="100" y="105.13793103448279" as="targetPoint" />
          </mxGeometry>
        </mxCell>
        <mxCell id="SStCwTeKqwltEW7rpsz1-32" value="Battery Status" style="text;html=1;strokeColor=#b85450;fillColor=#f8cecc;align=center;verticalAlign=middle;whiteSpace=wrap;rounded=0;sketch=0;" parent="1" vertex="1">
          <mxGeometry x="210" y="90" width="55" height="30" as="geometry" />
        </mxCell>
        <mxCell id="Gq3xom_HcEv2wPe3ekrj-31" style="edgeStyle=orthogonalEdgeStyle;rounded=0;orthogonalLoop=1;jettySize=auto;html=1;exitX=0;exitY=0.5;exitDx=0;exitDy=0;" parent="1" source="SStCwTeKqwltEW7rpsz1-39" edge="1">
          <mxGeometry relative="1" as="geometry">
            <mxPoint x="100" y="145.1379310344828" as="targetPoint" />
          </mxGeometry>
        </mxCell>
        <mxCell id="SStCwTeKqwltEW7rpsz1-39" value="Speed" style="text;html=1;strokeColor=#b85450;fillColor=#f8cecc;align=center;verticalAlign=middle;whiteSpace=wrap;rounded=0;sketch=0;" parent="1" vertex="1">
          <mxGeometry x="220" y="135" width="40" height="20" as="geometry" />
        </mxCell>
        <mxCell id="Gq3xom_HcEv2wPe3ekrj-33" style="edgeStyle=orthogonalEdgeStyle;rounded=0;orthogonalLoop=1;jettySize=auto;html=1;exitX=0;exitY=0.5;exitDx=0;exitDy=0;" parent="1" source="SStCwTeKqwltEW7rpsz1-49" edge="1">
          <mxGeometry relative="1" as="geometry">
            <mxPoint x="100" y="64.44827586206907" as="targetPoint" />
          </mxGeometry>
        </mxCell>
        <mxCell id="SStCwTeKqwltEW7rpsz1-49" value="Motor&amp;nbsp;&lt;br&gt;Temperature" style="text;html=1;strokeColor=#b85450;fillColor=#f8cecc;align=center;verticalAlign=middle;whiteSpace=wrap;rounded=0;sketch=0;" parent="1" vertex="1">
          <mxGeometry x="204" y="49.30000000000001" width="71" height="30.7" as="geometry" />
        </mxCell>
        <mxCell id="Gq3xom_HcEv2wPe3ekrj-29" style="edgeStyle=orthogonalEdgeStyle;rounded=0;orthogonalLoop=1;jettySize=auto;html=1;exitX=0;exitY=0.5;exitDx=0;exitDy=0;" parent="1" source="SStCwTeKqwltEW7rpsz1-50" edge="1">
          <mxGeometry relative="1" as="geometry">
            <mxPoint x="100" y="225.1379310344828" as="targetPoint" />
          </mxGeometry>
        </mxCell>
        <mxCell id="SStCwTeKqwltEW7rpsz1-50" value="Tire&lt;br&gt;Temperature" style="text;html=1;strokeColor=#b85450;fillColor=#f8cecc;align=center;verticalAlign=middle;whiteSpace=wrap;rounded=0;sketch=0;" parent="1" vertex="1">
          <mxGeometry x="205" y="210" width="70" height="30.7" as="geometry" />
        </mxCell>
        <mxCell id="SStCwTeKqwltEW7rpsz1-53" value="&lt;h1&gt;&lt;font style=&quot;font-size: 14px&quot;&gt;Check&lt;/font&gt;&lt;/h1&gt;&lt;div&gt;&lt;ul&gt;&lt;li&gt;&lt;span&gt;&lt;font style=&quot;font-size: 12px&quot;&gt;Limits.&lt;/font&gt;&lt;/span&gt;&lt;/li&gt;&lt;li&gt;&lt;font style=&quot;font-size: 12px&quot;&gt;temperature.&lt;/font&gt;&lt;/li&gt;&lt;li&gt;&lt;font style=&quot;font-size: 12px&quot;&gt;Mode.&lt;/font&gt;&lt;/li&gt;&lt;li&gt;&lt;font style=&quot;font-size: 12px&quot;&gt;Torque Map.&lt;/font&gt;&lt;/li&gt;&lt;li&gt;&lt;font style=&quot;font-size: 12px&quot;&gt;Final Torque Request.&lt;/font&gt;&lt;/li&gt;&lt;/ul&gt;&lt;/div&gt;" style="text;html=1;strokeColor=none;fillColor=none;spacing=5;spacingTop=-20;whiteSpace=wrap;overflow=hidden;rounded=0;sketch=0;fontColor=#46495D;" parent="1" vertex="1">
          <mxGeometry x="329" y="-69" width="191" height="130" as="geometry" />
        </mxCell>
        <mxCell id="Gq3xom_HcEv2wPe3ekrj-2" value="" style="endArrow=none;html=1;" parent="1" edge="1">
          <mxGeometry width="50" height="50" relative="1" as="geometry">
            <mxPoint x="780" y="300" as="sourcePoint" />
            <mxPoint x="780" as="targetPoint" />
          </mxGeometry>
        </mxCell>
        <mxCell id="Gq3xom_HcEv2wPe3ekrj-3" value="" style="endArrow=none;html=1;" parent="1" edge="1">
          <mxGeometry width="50" height="50" relative="1" as="geometry">
            <mxPoint x="770" y="300" as="sourcePoint" />
            <mxPoint x="770" as="targetPoint" />
          </mxGeometry>
        </mxCell>
        <mxCell id="Gq3xom_HcEv2wPe3ekrj-4" value="" style="endArrow=none;html=1;" parent="1" edge="1">
          <mxGeometry width="50" height="50" relative="1" as="geometry">
            <mxPoint x="100" y="300" as="sourcePoint" />
            <mxPoint x="100" as="targetPoint" />
          </mxGeometry>
        </mxCell>
        <mxCell id="Gq3xom_HcEv2wPe3ekrj-5" value="" style="endArrow=none;html=1;" parent="1" edge="1">
          <mxGeometry width="50" height="50" relative="1" as="geometry">
            <mxPoint x="90" y="300" as="sourcePoint" />
            <mxPoint x="90" as="targetPoint" />
          </mxGeometry>
        </mxCell>
        <mxCell id="Gq3xom_HcEv2wPe3ekrj-7" value="" style="endArrow=classic;html=1;" parent="1" edge="1">
          <mxGeometry width="50" height="50" relative="1" as="geometry">
            <mxPoint x="770" y="120" as="sourcePoint" />
            <mxPoint x="675" y="120" as="targetPoint" />
          </mxGeometry>
        </mxCell>
        <mxCell id="Gq3xom_HcEv2wPe3ekrj-8" value="" style="endArrow=classic;html=1;" parent="1" edge="1">
          <mxGeometry width="50" height="50" relative="1" as="geometry">
            <mxPoint x="770" y="160" as="sourcePoint" />
            <mxPoint x="675" y="160" as="targetPoint" />
          </mxGeometry>
        </mxCell>
        <mxCell id="Gq3xom_HcEv2wPe3ekrj-9" value="" style="endArrow=classic;html=1;" parent="1" edge="1">
          <mxGeometry width="50" height="50" relative="1" as="geometry">
            <mxPoint x="770" y="202.70999999999998" as="sourcePoint" />
            <mxPoint x="675" y="202.70999999999998" as="targetPoint" />
          </mxGeometry>
        </mxCell>
        <mxCell id="Gq3xom_HcEv2wPe3ekrj-35" value="CAN BUS" style="text;html=1;align=center;verticalAlign=middle;resizable=0;points=[];autosize=1;strokeColor=none;" parent="1" vertex="1">
          <mxGeometry x="740" y="-25" width="65" height="20" as="geometry" />
        </mxCell>
        <mxCell id="Gq3xom_HcEv2wPe3ekrj-36" value="CAN BUS" style="text;html=1;align=center;verticalAlign=middle;resizable=0;points=[];autosize=1;strokeColor=none;" parent="1" vertex="1">
          <mxGeometry x="65" y="-25" width="65" height="20" as="geometry" />
        </mxCell>
      </root>
    </mxGraphModel>
  </diagram>
</mxfile>
